# xmcd
#
# Track frame offsets:
#	150
#	40402
#	53050
#	74047
#	97490
#	114315
#	147037
#	174165
#	193612
#	215292
#	232742
#	262787
#	278275
#
# Disc length: 4137 seconds
#
# Revision: 2
# Processed by: cddbd v1.5.2PL0 Copyright (c) Steve Scherf et al.
# Submitted via: audiograbber 1.83.01
#
DISCID=b010270d
DTITLE=Various Artist - SWF Blues Festival 1993-1994 [CD5)
DYEAR=1994
DGENRE=Blues
TTITLE0=The R-Section - Down Home Blues
TTITLE1=Matchbox Bluesband and Guests - It's Been A Long Time
TTITLE2=Matchbox Bluesband and Guests - Blow Top Blues
TTITLE3=Hans Theessink and Blue Groove and Guests - Lazy
TTITLE4=Hans Theessink and Blue Groove and Guests - New Orleans
TTITLE5=Lucky Peterson and The Organization - Who's Been Talkin'
TTITLE6=Lucky Peterson and The Organization - Don't Cloud Up On Me
TTITLE7=The Blues Big Band - Only Getting Second Best
TTITLE8=Have Mercy - I Keep Rolling
TTITLE9=Have Mercy - Rusty Cars And Lonely Bars
TTITLE10=Willie Kent and The Gents - One More Mile
TTITLE11=Willie Kent and The Gents - Dust My Broom
TTITLE12=Johnny Heartsman and The International Blues Orchestra - Hifi Appartment
EXTD=
EXTT0=
EXTT1=
EXTT2=
EXTT3=
EXTT4=
EXTT5=
EXTT6=
EXTT7=
EXTT8=
EXTT9=
EXTT10=
EXTT11=
EXTT12=
PLAYORDER=
